<?xml version="1.0" encoding="UTF-8"?>
<svg version="1.1" viewBox="0 0 1000 1000" width="250" height="250" xmlns="http://www.w3.org/2000/svg">
<path transform="translate(290,164)" d="m0 0h23l21 2 21 5 25 9 22 11 16 11 13 11 10 9 11 11 8 10 14 21 12 23 11 25 4 13h2l7-14 10-15 10-13 12-14 7-7 2-3h2l2-4 8-7 12-11 10-8 18-13 16-10 19-10 16-6 21-5 19-3h32l19 3 23 6 26 12 16 10 14 11 12 11 7 7 9 11 12 17 9 15 12 25 9 27 4 18 2 20v40l-2 19-5 22-8 28-10 23-12 20-15 22-13 18-10 13-24 28-16 17-12 13-44 44-8 7-12 11-8 7-10 9-8 7-10 9-8 7-10 9-11 9-11 10-11 9-10 8-9 8-11 9-11 10-9 7-13 11-11 9-5 4h-2v2l-13 10-12 10-20 15-15 11-14 10-19 13-15 10h-4l-4-13-9-35-7-20-10-23-10-21-12-21-14-21-11-15-9-12-9-11-11-13-12-13-11-12-34-34-15-16-16-16-10-9-4-5-8-7-23-23-14-16-10-14-13-21-14-30-11-27-10-31-6-28-4-24-1-14v-14l2-18 6-31 4-15 11-27 12-21 10-14 11-13 17-17 13-10 15-10 23-11 24-8 23-4z" fill="#FB1770"/>
</svg>
